<svg xmlns="http://www.w3.org/2000/svg" width="132" height="52" viewBox="0 0 132 52">
  <defs>
    <linearGradient id="color@3x-a" x1="72.49%" x2="30.067%" y1="11.422%" y2="84.153%">
      <stop offset="0%" stop-color="#7EC94F"/>
      <stop offset="100%" stop-color="#00A7E3"/>
    </linearGradient>
    <linearGradient id="color@3x-b" x1="-18.344%" x2="344.247%" y1="75.302%" y2="-47.579%">
      <stop offset="0%" stop-color="#7EC94F"/>
      <stop offset="100%" stop-color="#00A7E3"/>
    </linearGradient>
    <linearGradient id="color@3x-c" x1="-74.32%" x2="235.22%" y1="101.11%" y2="-25.964%">
      <stop offset="0%" stop-color="#7EC94F"/>
      <stop offset="100%" stop-color="#00A7E3"/>
    </linearGradient>
    <linearGradient id="color@3x-d" x1="8.539%" x2="86.141%" y1="117.858%" y2="-9.215%">
      <stop offset="0%" stop-color="#7EC94F"/>
      <stop offset="100%" stop-color="#00A7E3"/>
    </linearGradient>
    <linearGradient id="color@3x-e" x1="-258.922%" x2="175.129%" y1="140.727%" y2="13.653%">
      <stop offset="0%" stop-color="#7EC94F"/>
      <stop offset="100%" stop-color="#00A7E3"/>
    </linearGradient>
  </defs>
  <g fill="none" fill-rule="evenodd" transform="translate(.606 .4)">
    <g fill-rule="nonzero">
      <path fill="url(#color@3x-a)" d="M127.447585,21.7 L126.586047,20.96 L127.447585,20.22 L127.487657,20.18 C129.591413,17.96 130.753488,15.04 130.753488,11.98 C130.753488,5.4 125.3839,0.04 118.792129,0.04 C112.200358,0.04 106.830769,5.4 106.830769,11.98 C106.830769,15.44 108.333453,18.7 110.898032,20.96 C108.333453,23.22 106.830769,26.48 106.830769,29.94 C106.830769,36.52 112.200358,41.88 118.792129,41.88 C125.3839,41.88 130.753488,36.52 130.753488,29.94 C130.753488,26.88 129.591413,23.98 127.487657,21.74 L127.447585,21.7 Z M125.804651,25.82 C126.085152,26.28 126.325581,26.78 126.505903,27.3 C126.80644,28.12 126.946691,28.98 126.986762,29.84 C127.006798,30.7 126.886583,31.58 126.646154,32.42 C126.125224,34.08 125.103399,35.6 123.700894,36.66 C122.999642,37.18 122.218247,37.62 121.376744,37.9 C120.535242,38.18 119.653667,38.34 118.772093,38.36 C117.890519,38.36 116.988909,38.24 116.147406,37.98 C115.285868,37.72 114.484436,37.3 113.763148,36.8 C112.280501,35.78 111.178533,34.24 110.597496,32.54 C110.316995,31.68 110.176744,30.78 110.156708,29.86 C110.156708,28.96 110.296959,28.04 110.57746,27.18 C111.138462,25.44 112.280501,23.9 113.763148,22.82 L118.732021,19.44 L122.258318,17.04 C122.278354,17.04 122.278354,17.02 122.29839,17.02 C123.34025,16.3 124.181753,15.26 124.62254,14.04 C124.86297,13.44 124.963148,12.78 125.00322,12.12 C125.00322,11.46 124.943113,10.8 124.762791,10.16 C124.382111,8.9 123.620751,7.74 122.538819,6.92 C121.997853,6.52 121.416816,6.18 120.775671,5.96 C120.134526,5.74 119.473345,5.62 118.792129,5.6 C118.110912,5.6 117.429696,5.68 116.768515,5.88 C116.107335,6.08 115.506261,6.4 114.925224,6.78 C113.783184,7.56 112.941682,8.74 112.480859,10.04 C112.260465,10.7 112.160286,11.4 112.14025,12.1 C112.14025,12.8 112.240429,13.5 112.460823,14.18 C112.561002,14.52 112.701252,14.86 112.861538,15.18 L114.003578,14.04 L114.003578,17.88 L110.156708,17.88 L111.799642,16.24 C111.499106,15.74 111.23864,15.22 111.038283,14.68 C110.737746,13.88 110.597496,13 110.557424,12.14 C110.537388,11.28 110.657603,10.4 110.898032,9.58 C111.418962,7.92 112.420751,6.4 113.843292,5.36 C114.544544,4.84 115.325939,4.4 116.167442,4.12 C117.008945,3.84 117.890519,3.68 118.772093,3.66 C119.653667,3.66 120.555277,3.78 121.39678,4.04 C122.258318,4.3 123.05975,4.72 123.781038,5.22 C125.263685,6.24 126.365653,7.78 126.946691,9.48 C127.227191,10.34 127.367442,11.24 127.367442,12.16 C127.367442,13.06 127.227191,13.98 126.946691,14.84 C126.385689,16.58 125.243649,18.12 123.740966,19.2 C123.72093,19.2 123.72093,19.22 123.700894,19.22 L120.214669,21.6 L115.546333,24.78 C115.526297,24.8 115.506261,24.8 115.486225,24.82 L115.22576,25 C114.163864,25.72 113.302326,26.78 112.861538,28 C112.641145,28.62 112.52093,29.26 112.500894,29.92 C112.500894,30.58 112.561002,31.24 112.741324,31.88 C113.122004,33.14 113.903399,34.3 114.965295,35.1 C115.506261,35.5 116.087299,35.84 116.728444,36.06 C117.369589,36.28 118.030769,36.4 118.711986,36.42 C119.393202,36.42 120.074419,36.32 120.715564,36.14 C121.376744,35.94 121.977818,35.62 122.538819,35.24 C123.680859,34.46 124.522361,33.28 124.983184,31.98 C125.203578,31.32 125.303757,30.62 125.323792,29.92 C125.323792,29.22 125.223614,28.52 125.00322,27.86 C124.903041,27.56 124.782826,27.26 124.642576,26.98 L123.400358,28.22 L123.400358,24.38 L127.247227,24.38 L125.804651,25.82 Z M115.886941,12 C115.886941,10.4 117.189267,9.12 118.772093,9.12 C120.354919,9.12 121.657245,10.42 121.657245,12 C121.657245,12.9 121.236494,13.76 120.515206,14.3 L118.772093,15.48 L117.02898,14.3 C116.327728,13.76 115.886941,12.9 115.886941,12 Z M121.657245,29.94 C121.657245,31.54 120.354919,32.82 118.772093,32.82 C117.189267,32.82 115.886941,31.52 115.886941,29.94 C115.886941,29.04 116.307692,28.18 117.02898,27.64 L118.772093,26.44 L120.515206,27.62 C121.236494,28.18 121.657245,29.04 121.657245,29.94 Z"/>
      <g transform="translate(0 7.6)">
        <path fill="url(#color@3x-b)" d="M0.120214669,15.76 C0.120214669,7.1 6.6118068,2.84217094e-15 15.8683363,2.84217094e-15 C20.2161002,2.84217094e-15 23.2415027,1.18 25.745975,3 C26.9280859,3.86 27.1284436,5.56 26.1667263,6.66 L25.9864043,6.88 C25.1248658,7.86 23.662254,8.02 22.6003578,7.24 C20.6368515,5.82 18.4930233,4.92 15.8282648,4.92 C9.97781753,4.92 5.75026834,9.7 5.75026834,15.76 C5.75026834,21.72 9.97781753,26.6 15.8282648,26.6 C18.7735242,26.6 20.8973166,25.66 22.9209302,24.08 C23.9227191,23.3 25.3452594,23.4 26.2268336,24.3 L26.2268336,24.3 C27.2486583,25.34 27.188551,27.04 26.0465116,27.96 C23.3416816,30.18 20.1960644,31.52 15.627907,31.52 C6.73202147,31.52 0.120214669,24.58 0.120214669,15.76 Z"/>
        <path fill="url(#color@3x-c)" d="M35.4432916,0.52 L35.4432916,0.52 C36.9259392,0.52 38.1280859,1.72 38.1280859,3.2 L38.1280859,26.12 L51.7323792,26.12 C53.0747764,26.12 54.1767442,27.22 54.1767442,28.56 L54.1767442,28.56 C54.1767442,29.9 53.0747764,31 51.7323792,31 L35.222898,31 C33.8604651,31 32.7584973,29.9 32.7584973,28.54 L32.7584973,3.2 C32.7584973,1.72 33.960644,0.52 35.4432916,0.52 Z"/>
        <path fill="url(#color@3x-d)" d="M62.0908766,0.52 L62.0908766,0.52 C63.5735242,0.52 64.7756708,1.72 64.7756708,3.2 L64.7756708,28.32 C64.7756708,29.8 63.5735242,31 62.0908766,31 L62.0908766,31 C60.608229,31 59.4060823,29.8 59.4060823,28.32 L59.4060823,3.2 C59.4060823,1.72 60.608229,0.52 62.0908766,0.52 Z"/>
        <path fill="url(#color@3x-e)" d="M75.0339893,0.52 L75.0339893,0.52 C76.4565295,0.52 77.7788909,1.24 78.5602862,2.44 L86.6146691,14.94 L94.6690519,2.44 C95.4304114,1.24 96.7728086,0.52 98.1953488,0.52 L98.1953488,0.52 C100.098748,0.52 101.621467,2.06 101.621467,3.94 L101.621467,28.36 C101.621467,29.82 100.439356,31 98.9767442,31 L98.8966011,31 C97.4339893,31 96.2518784,29.82 96.2518784,28.36 L96.2518784,9.14 L86.6146691,23.5 L86.434347,23.5 L76.8772809,9.22 L76.8772809,28.36 C76.8772809,29.82 75.6951699,31 74.2325581,31 L74.2325581,31 C72.7699463,31 71.5878354,29.82 71.5878354,28.36 L71.5878354,3.94 C71.5878354,2.04 73.1305903,0.52 75.0339893,0.52 Z"/>
      </g>
    </g>
    <path fill="#41A49E" fill-rule="nonzero" d="M.88157424.2L.88157424.2C1.2822898.2 1.62289803.52 1.62289803.92L1.62289803 7.74C1.62289803 8.14 1.2822898 8.46.88157424 8.46L.88157424 8.46C.480858676 8.46.140250447 8.14.140250447 7.74L.140250447.92C.140250447.52.480858676.2.88157424.2zM9.71735242.2L9.93774597.2C10.1581395.2 10.3785331.3 10.5187835.48L14.8064401 5.92 14.8064401.92C14.8064401.52 15.1270125.2 15.5277281.2L15.5277281.2C15.9284436.2 16.2490161.52 16.2490161.92L16.2490161 7.76C16.2490161 8.14 15.9284436 8.46 15.5277281 8.46L15.3674419 8.46C15.1470483 8.46 14.9266547 8.36 14.7864043 8.18L10.3584973 2.58 10.3584973 7.74C10.3584973 8.14 10.0379249 8.46 9.6372093 8.46L9.6372093 8.46C9.23649374 8.46 8.91592129 8.14 8.91592129 7.74L8.91592129.98C8.91592129.54 9.2765653.2 9.71735242.2zM23.8626118.2L23.8626118.2C24.1631485.2 24.4436494.38 24.563864.66L26.9080501 6.54 29.2522361.64C29.352415.36 29.6329159.18 29.9334526.18L29.9334526.18C30.4543828.18 30.8150268.7 30.6146691 1.18L27.7896243 7.92C27.6493739 8.28 27.2887299 8.5 26.8880143 8.5L26.8880143 8.5C26.4872987 8.5 26.1466905 8.26 25.9864043 7.92L23.1613596 1.2C22.9810376.72 23.3416816.2 23.8626118.2zM38.2282648.2L43.1169946.2C43.4776386.2 43.7781753.5 43.7781753.84L43.7781753.84C43.7781753 1.2 43.4776386 1.48 43.1169946 1.48L39.0096601 1.48 39.0096601 3.62 42.5760286 3.62C42.9366726 3.62 43.2372093 3.92 43.2372093 4.26L43.2372093 4.26C43.2372093 4.62 42.9366726 4.9 42.5760286 4.9L39.0096601 4.9 39.0096601 7.12 43.177102 7.12C43.537746 7.12 43.8382826 7.42 43.8382826 7.76L43.8382826 7.76C43.8382826 8.12 43.537746 8.4 43.177102 8.4L38.2483005 8.4C37.847585 8.4 37.5270125 8.08 37.5270125 7.7L37.5270125.82C37.5470483.5 37.847585.2 38.2282648.2zM50.5101968 6.74L50.5502683 6.68C50.7706619 6.42 51.1513417 6.38 51.4518784 6.58 52.113059 7.04 52.7942755 7.28 53.6157424 7.28 54.5373882 7.28 55.09839 6.86 55.09839 6.22 55.09839 5.62 54.7577818 5.32 53.1949911 4.94 51.4118068 4.52 50.3899821 4 50.3899821 2.46 50.3899821 1.04 51.5921288.06 53.2550984.06 54.19678.06 54.9781753.28 55.6794275.68 56.0400716.88 56.1402504 1.34 55.8998211 1.66L55.8998211 1.66C55.6994633 1.94 55.2987478 2.04 54.9982111 1.86 54.4171735 1.52 53.8161002 1.34 53.2150268 1.34 52.3534884 1.34 51.8525939 1.78 51.8525939 2.34 51.8525939 2.98 52.2332737 3.26 53.8561717 3.64 55.639356 4.06 56.5610018 4.7 56.5610018 6.08 56.5610018 7.62 55.3187835 8.54 53.5556351 8.54 52.5137746 8.54 51.5119857 8.24 50.6304114 7.66 50.3298748 7.48 50.2697674 7.04 50.5101968 6.74zM65.2765653 1.54L63.2930233 1.54C62.9123435 1.54 62.6118068 1.24 62.6118068.86L62.6118068.86C62.6118068.48 62.9123435.18 63.2930233.18L68.7427549.18C69.1234347.18 69.4239714.48 69.4239714.86L69.4239714.86C69.4239714 1.24 69.1234347 1.54 68.7427549 1.54L66.7592129 1.54 66.7592129 7.72C66.7592129 8.12 66.4186047 8.46 66.0178891 8.46L66.0178891 8.46C65.5971377 8.46 65.2765653 8.14 65.2765653 7.72L65.2765653 1.54z" transform="translate(32.458 42.6)"/>
  </g>
</svg>
