<?xml version="1.0" encoding="UTF-8"?>
<svg width="200px" height="200px" viewBox="0 0 200 200" version="1.1" xmlns="http://www.w3.org/2000/svg" xmlns:xlink="http://www.w3.org/1999/xlink">
    <!-- Generator: Sketch 64 (93537) - https://sketch.com -->
    <title>investment-options-smart-mobility</title>
    <desc>Created with Sketch.</desc>
    <defs>
        <linearGradient x1="-59.9024724%" y1="92.5006163%" x2="254.75683%" y2="-29.1829043%" id="linearGradient-1">
            <stop stop-color="#FFFFFF" stop-opacity="0.4" offset="0.09935702%"></stop>
            <stop stop-color="#FFFFFF" stop-opacity="0.95" offset="100%"></stop>
        </linearGradient>
        <linearGradient x1="-12.0966667%" y1="86.575%" x2="174.413333%" y2="-23.3566667%" id="linearGradient-2">
            <stop stop-color="#FFFFFF" stop-opacity="0.4" offset="0.09935702%"></stop>
            <stop stop-color="#FFFFFF" stop-opacity="0.95" offset="100%"></stop>
        </linearGradient>
        <linearGradient x1="-41.6483333%" y1="129.775%" x2="74.4766667%" y2="28.7033333%" id="linearGradient-3">
            <stop stop-color="#FFFFFF" stop-opacity="0.4" offset="0.09935702%"></stop>
            <stop stop-color="#FFFFFF" stop-opacity="0.95" offset="100%"></stop>
        </linearGradient>
        <linearGradient x1="2.61770631%" y1="62.6753195%" x2="98.9496365%" y2="42.9240137%" id="linearGradient-4">
            <stop stop-color="#FFFFFF" stop-opacity="0.4" offset="0%"></stop>
            <stop stop-color="#FFFFFF" stop-opacity="0.95" offset="100%"></stop>
        </linearGradient>
        <linearGradient x1="3.37301587%" y1="50%" x2="99.0111111%" y2="50%" id="linearGradient-5">
            <stop stop-color="#638783" stop-opacity="0" offset="0%"></stop>
            <stop stop-color="#638783" stop-opacity="0.8654" offset="86.54%"></stop>
            <stop stop-color="#638783" offset="100%"></stop>
        </linearGradient>
        <linearGradient x1="3.34342105%" y1="50%" x2="98.9088816%" y2="50%" id="linearGradient-6">
            <stop stop-color="#638783" offset="0%"></stop>
            <stop stop-color="#488987" stop-opacity="0.6611" offset="18.04%"></stop>
            <stop stop-color="#168D8D" stop-opacity="0" offset="53.22%"></stop>
            <stop stop-color="#638783" offset="100%"></stop>
        </linearGradient>
        <linearGradient x1="35.7768939%" y1="102.856318%" x2="62.7168519%" y2="2.78716759%" id="linearGradient-7">
            <stop stop-color="#FFFFFF" stop-opacity="0.4" offset="0%"></stop>
            <stop stop-color="#FFFFFF" stop-opacity="0.95" offset="100%"></stop>
        </linearGradient>
        <linearGradient x1="47.815781%" y1="46.0823711%" x2="62.9553798%" y2="65.3903002%" id="linearGradient-8">
            <stop stop-color="#638783" offset="0%"></stop>
            <stop stop-color="#5F8784" stop-opacity="0.9806" offset="1.94%"></stop>
            <stop stop-color="#448987" stop-opacity="0.8444" offset="15.56%"></stop>
            <stop stop-color="#308B8A" stop-opacity="0.6947" offset="30.53%"></stop>
            <stop stop-color="#218C8C" stop-opacity="0.5266" offset="47.34%"></stop>
            <stop stop-color="#198D8D" stop-opacity="0.3248" offset="67.52%"></stop>
            <stop stop-color="#168D8D" stop-opacity="0" offset="100%"></stop>
        </linearGradient>
        <linearGradient x1="58.0827506%" y1="22.9265327%" x2="33.5629371%" y2="75.2328775%" id="linearGradient-9">
            <stop stop-color="#638783" offset="0%"></stop>
            <stop stop-color="#5F8784" stop-opacity="0.9806" offset="1.94%"></stop>
            <stop stop-color="#448987" stop-opacity="0.8444" offset="15.56%"></stop>
            <stop stop-color="#308B8A" stop-opacity="0.6947" offset="30.53%"></stop>
            <stop stop-color="#218C8C" stop-opacity="0.5266" offset="47.34%"></stop>
            <stop stop-color="#198D8D" stop-opacity="0.3248" offset="67.52%"></stop>
            <stop stop-color="#168D8D" stop-opacity="0" offset="100%"></stop>
        </linearGradient>
        <linearGradient x1="53.542922%" y1="58.3731689%" x2="39.8431113%" y2="32.462606%" id="linearGradient-10">
            <stop stop-color="#638783" offset="0%"></stop>
            <stop stop-color="#5F8784" stop-opacity="0.9806" offset="1.94%"></stop>
            <stop stop-color="#448987" stop-opacity="0.8444" offset="15.56%"></stop>
            <stop stop-color="#308B8A" stop-opacity="0.6947" offset="30.53%"></stop>
            <stop stop-color="#218C8C" stop-opacity="0.5266" offset="47.34%"></stop>
            <stop stop-color="#198D8D" stop-opacity="0.3248" offset="67.52%"></stop>
            <stop stop-color="#168D8D" stop-opacity="0" offset="100%"></stop>
        </linearGradient>
        <linearGradient x1="10.32%" y1="80.1177208%" x2="65.76%" y2="44.5481927%" id="linearGradient-11">
            <stop stop-color="#638783" offset="0%"></stop>
            <stop stop-color="#5F8784" stop-opacity="0.9806" offset="1.94%"></stop>
            <stop stop-color="#448987" stop-opacity="0.8444" offset="15.56%"></stop>
            <stop stop-color="#308B8A" stop-opacity="0.6947" offset="30.53%"></stop>
            <stop stop-color="#218C8C" stop-opacity="0.5266" offset="47.34%"></stop>
            <stop stop-color="#198D8D" stop-opacity="0.3248" offset="67.52%"></stop>
            <stop stop-color="#168D8D" stop-opacity="0" offset="100%"></stop>
        </linearGradient>
        <linearGradient x1="5.60659341%" y1="51.3295447%" x2="95.6791209%" y2="48.6996546%" id="linearGradient-12">
            <stop stop-color="#638783" stop-opacity="0" offset="0%"></stop>
            <stop stop-color="#638783" stop-opacity="0.8654" offset="86.54%"></stop>
            <stop stop-color="#638783" offset="100%"></stop>
        </linearGradient>
        <linearGradient x1="5.7541806%" y1="51.001854%" x2="93.270903%" y2="49.0578741%" id="linearGradient-13">
            <stop stop-color="#638783" stop-opacity="0" offset="0%"></stop>
            <stop stop-color="#638783" stop-opacity="0.8654" offset="86.54%"></stop>
            <stop stop-color="#638783" offset="100%"></stop>
        </linearGradient>
        <linearGradient x1="-1.85650441%" y1="81.4615045%" x2="84.2408503%" y2="25.3763509%" id="linearGradient-14">
            <stop stop-color="#638783" offset="5.53%"></stop>
            <stop stop-color="#5F8784" stop-opacity="0.9806" offset="7.36%"></stop>
            <stop stop-color="#448987" stop-opacity="0.8444" offset="20.22%"></stop>
            <stop stop-color="#308B8A" stop-opacity="0.6947" offset="34.37%"></stop>
            <stop stop-color="#218C8C" stop-opacity="0.5266" offset="50.25%"></stop>
            <stop stop-color="#198D8D" stop-opacity="0.3248" offset="69.31%"></stop>
            <stop stop-color="#168D8D" stop-opacity="0" offset="100%"></stop>
        </linearGradient>
    </defs>
    <g id="investment-options-smart-mobility" stroke="none" stroke-width="1" fill="none" fill-rule="evenodd">
        <g id="icon/104px/electric-car">
            <g id="Theme-icons-_Smart-Mobility---White" transform="translate(8.653846, 28.846154)">
                <path d="M74.9769231,92.8384615 L81.9942308,92.8384615 C84.3038462,92.8384615 86.1769231,94.5596154 86.1769231,96.6846154 L86.1769231,96.6846154 C86.1769231,98.8096154 84.3038462,100.530769 81.9942308,100.530769 L74.9769231,100.530769 C72.6673077,100.530769 70.7942293,98.8096154 70.7942293,96.6846154 L70.7942293,96.6846154 C70.7923077,94.5596154 72.6653846,92.8384615 74.9769231,92.8384615 Z" id="Path" fill="url(#linearGradient-1)" fill-rule="nonzero"></path>
                <path d="M39.75,124.886538 C42.9326923,124.886538 45.525,122.298077 45.525,119.117308 C45.525,115.936538 42.9326923,113.348077 39.75,113.348077 C36.5673077,113.348077 33.9865385,115.936538 33.9865385,119.117308 C33.9865385,122.298077 36.5673077,124.886538 39.75,124.886538 Z" id="Path" fill="url(#linearGradient-2)" fill-rule="nonzero"></path>
                <path d="M139.821154,124.886538 C143,124.886538 145.590385,122.298077 145.590385,119.117308 C145.590385,115.936538 143,113.348077 139.821154,113.348077 C136.642308,113.348077 134.051923,115.936538 134.051923,119.117308 C134.051923,122.298077 136.642308,124.886538 139.821154,124.886538 Z" id="Path" fill="url(#linearGradient-3)" fill-rule="nonzero"></path>
                <path d="M182.186538,85.7519231 C182.148077,85.6365385 182.090385,85.5211538 182.013462,85.3480769 C181.975,85.2519231 181.936538,85.1557692 181.878846,85.0788462 L181.705769,84.7903846 L181.128846,85.1365385 L181.128846,85.1365385 L177.763462,79.5788462 L177.763462,79.5788462 L178.340385,79.2326923 L173.282692,70.8673077 L175.551923,66.3673077 C176.013462,65.4442308 176.090385,64.3865385 175.763462,63.4057692 C175.436538,62.425 174.744231,61.6173077 173.801923,61.1557692 C173.455769,60.9826923 173.090385,60.8673077 172.705769,60.8096154 L148.225,56.7519231 C138.551923,55.1557692 128.667308,54.3480769 118.878846,54.3480769 C88.6865385,54.3480769 72.1865385,62.2711538 47.7826923,75.1942308 L38.3403846,80.1942308 L23.9173077,83.3865385 C13.7826923,85.5980769 5.32115385,92.1365385 0.705769231,101.367308 C0.436538462,101.905769 0.282692308,102.501923 0.282692308,103.117308 L0.282692308,125.559615 C0.282692308,127.694231 2.03269231,129.444231 4.18653846,129.444231 L18.8980769,129.444231 C24.4942308,140.655769 38.1865385,145.425 49.6288462,140.059615 C54.3403846,137.848077 58.2057692,134.078846 60.5134615,129.444231 L118.975,129.444231 C123.013462,137.540385 131.244231,142.271154 139.821154,142.271154 C143.148077,142.271154 146.513462,141.559615 149.705769,140.059615 C154.436538,137.848077 158.282692,134.078846 160.590385,129.444231 L162.378846,129.444231 C163.090385,129.444231 163.782692,129.251923 164.378846,128.886538 L180.513462,119.271154 C181.686538,118.578846 182.398077,117.290385 182.398077,115.944231 L182.398077,87.0596154 C182.436538,86.6173077 182.359615,86.1557692 182.186538,85.7519231 Z M158.359615,104.963462 C154.590385,100.021154 149.090385,96.8480769 142.898077,96.0403846 C130.186538,94.3673077 118.455769,103.251923 116.763462,115.886538 C116.513462,117.809615 116.494231,119.732692 116.725,121.655769 L102.359615,121.655769 L107.244231,87.7519231 L133.378846,87.7519231 C134.417308,87.7519231 135.398077,87.3480769 136.128846,86.6173077 L156.859615,66.0403846 L166.263462,67.5980769 L165.398077,69.3096154 C164.801923,70.5019231 164.859615,71.9057692 165.551923,73.0403846 L171.686538,83.1942308 L155.975,83.1942308 C153.821154,83.1942308 152.071154,84.925 152.071154,87.0788462 C152.071154,87.9057692 152.340385,88.7326923 152.859615,89.4057692 L162.551923,102.232692 C163.282692,103.194231 164.455769,103.790385 165.667308,103.790385 L174.686538,103.790385 L174.686538,113.732692 L163.071154,120.655769 C163.455769,115.021154 161.821154,109.501923 158.359615,104.963462 Z M139.821154,103.771154 C148.340385,103.771154 155.282692,110.655769 155.282692,119.117308 C155.282692,127.578846 148.340385,134.463462 139.821154,134.463462 C131.301923,134.463462 124.359615,127.578846 124.359615,119.117308 C124.359615,110.655769 131.282692,103.771154 139.821154,103.771154 Z M174.648077,90.9634615 L174.648077,96.0211538 L167.590385,96.0211538 L163.763462,90.9634615 L174.648077,90.9634615 Z M108.359615,80.0019231 L110.898077,62.3480769 C113.648077,62.1942308 116.282692,62.1173077 118.917308,62.1173077 C128.301923,62.1173077 137.744231,62.8865385 146.975,64.425 L147.359615,64.4826923 L131.744231,80.0019231 L108.359615,80.0019231 L108.359615,80.0019231 Z M55.3788462,80.0019231 C72.225,71.1557692 85.1673077,65.175 102.898077,63.0211538 L100.455769,80.0019231 L55.3788462,80.0019231 Z M58.5903846,105.444231 C54.9365385,100.463462 49.5519231,97.2134615 43.4173077,96.2903846 C42.2634615,96.1173077 41.0903846,96.0211538 39.9173077,96.0211538 C39.8019231,96.0211538 39.7057692,96.0211538 39.5903846,96.0211538 C26.9365385,96.0211538 16.5903846,106.194231 16.4942308,118.790385 C16.4942308,119.751923 16.5326923,120.713462 16.6480769,121.655769 L8.14807692,121.655769 L8.14807692,110.175 L10.7346154,110.175 C12.875,110.175 14.6096154,108.440385 14.6096154,106.3 L14.6096154,106.3 C14.6096154,104.159615 12.875,102.425 10.7346154,102.425 L9.14807692,102.425 C12.8788462,96.5980769 18.8403846,92.4442308 25.6480769,90.9634615 L40.1096154,87.7519231 L99.3596154,87.7519231 L94.475,121.655769 L62.8596154,121.655769 C63.5519231,115.886538 62.0519231,110.155769 58.5903846,105.444231 Z M39.7442308,103.771154 C48.2826923,103.771154 55.2057692,110.655769 55.2057692,119.117308 C55.1865385,127.578846 48.2634615,134.463462 39.7442308,134.463462 C31.225,134.463462 24.2826923,127.578846 24.2826923,119.117308 C24.2826923,110.655769 31.225,103.771154 39.7442308,103.771154 Z" id="Shape" fill="url(#linearGradient-4)" fill-rule="nonzero"></path>
                <path d="M6.82115385,129.405769 L18.9365385,129.405769 C18.9365385,129.405769 17.9173077,127.675 17.2057692,125.367308 C16.6288462,123.521154 16.6288462,121.655769 16.6288462,121.655769 L6.82115385,121.655769 L6.82115385,129.405769 Z" id="Path" fill="url(#linearGradient-5)" fill-rule="nonzero" opacity="0.25"></path>
                <path d="M94.475,121.655769 L62.8596154,121.655769 C62.8596154,121.655769 62.8019231,123.194231 62.3019231,125.213462 C61.975,126.521154 60.5711538,129.405769 60.5711538,129.405769 L119.032692,129.405769 C119.032692,129.405769 118.051923,127.675 117.340385,125.367308 C116.763462,123.521154 116.725,121.655769 116.725,121.655769 L102.359615,121.655769 L94.475,121.655769 Z" id="Path" fill="url(#linearGradient-6)" fill-rule="nonzero" opacity="0.25"></path>
                <path d="M66.8596154,25.675 C66.2057692,24.3288462 64.8980769,23.4826923 63.3596154,23.4826923 L57.0903846,23.5211538 L61.725,4.80961538 C62.1480769,3.05961538 61.3211538,1.25192308 59.7057692,0.444230769 C58.1096154,-0.363461538 56.1480769,0.0596153846 55.0134615,1.44423077 L29.0326923,33.2903846 C28.0903846,34.4442308 27.8980769,36.0403846 28.5326923,37.3865385 C29.1865385,38.7326923 30.5326923,39.5788462 32.0134615,39.5788462 C32.0326923,39.5788462 32.0326923,39.5788462 32.0326923,39.5788462 L38.3211538,39.5596154 L33.7057692,58.2519231 C33.2826923,60.0019231 34.1096154,61.8096154 35.725,62.6173077 C36.2634615,62.8865385 36.8596154,63.0211538 37.4365385,63.0211538 C38.5519231,63.0211538 39.6673077,62.5211538 40.4173077,61.5980769 L66.3788462,29.7711538 C67.3211538,28.6173077 67.4942308,27.0211538 66.8596154,25.675 Z M45.2634615,43.5019231 L46.9557692,36.6173077 C47.2442308,35.4634615 46.975,34.2326923 46.2442308,33.3096154 C45.5134615,32.3865385 44.3980769,31.8480769 43.225,31.8480769 L40.1673077,31.8673077 L50.1865385,19.5980769 L48.475,26.5019231 C48.1865385,27.6557692 48.4557692,28.8865385 49.1865385,29.8096154 C49.9173077,30.7326923 51.0326923,31.2903846 52.225,31.2711538 L55.2634615,31.2519231 L45.2634615,43.5019231 Z" id="Shape" fill="url(#linearGradient-7)" fill-rule="nonzero"></path>
                <path d="M49.1673077,29.7903846 C48.4365385,28.8673077 48.1673077,27.6365385 48.4557692,26.4826923 L50.1673077,19.5788462 L61.7442308,4.80961538 L57.1096154,23.5211538 L49.1673077,29.7903846 Z" id="Path" fill="url(#linearGradient-8)" fill-rule="nonzero" opacity="0.25"></path>
                <polygon id="Path" fill="url(#linearGradient-9)" fill-rule="nonzero" opacity="0.25" points="49.8980769 37.8288462 55.2634615 31.2326923 66.3980769 29.7711538 56.2826923 42.1557692"></polygon>
                <path d="M46.2442308,33.3096154 C46.975,34.2326923 47.2442308,35.4634615 46.9557692,36.6173077 L45.2634615,43.5019231 L33.7057692,58.2519231 L38.3211538,39.5596154 L46.2442308,33.3096154 Z" id="Path" fill="url(#linearGradient-10)" fill-rule="nonzero" opacity="0.25"></path>
                <polygon id="Path" fill="url(#linearGradient-11)" fill-rule="nonzero" opacity="0.25" points="47.0711538 23.3673077 40.1480769 31.8480769 30.2442308 31.8288462 39.6096154 20.3480769"></polygon>
                <g id="Recycle_-_Green_1_" transform="translate(165.384615, 95.192308)" fill="url(#linearGradient-12)" fill-rule="nonzero" opacity="0.25">
                    <polygon id="Path" points="9.26346154 0.828846154 0.705769231 0.828846154 0.513461538 8.57884615 9.26346154 8.57884615"></polygon>
                </g>
                <g id="Recycle_-_Green_4_" opacity="0.5" transform="translate(162.500000, 82.692308)" fill="url(#linearGradient-13)" fill-rule="nonzero">
                    <polygon id="Path" opacity="0.25" points="9.39807692 0.521153846 0.840384615 0.521153846 0.648076923 8.27115385 12.1480769 8.27115385"></polygon>
                </g>
                <path d="M171.609615,115.528846 L163.073077,120.617308 C163.073077,120.617308 162.776923,122.848077 162.430769,124.705769 C162.201923,125.932692 160.592308,129.405769 160.592308,129.405769 L162.380769,129.405769 C163.092308,129.405769 163.784615,129.213462 164.380769,128.848077 L176.513462,121.617308 L171.609615,115.528846 Z" id="Path" fill="url(#linearGradient-14)" fill-rule="nonzero" opacity="0.25"></path>
            </g>
        </g>
    </g>
</svg>