<?xml version="1.0" encoding="UTF-8"?>
<svg width="200px" height="200px" viewBox="0 0 200 200" version="1.1" xmlns="http://www.w3.org/2000/svg" xmlns:xlink="http://www.w3.org/1999/xlink">
    <!-- Generator: Sketch 64 (93537) - https://sketch.com -->
    <title>investment-options-sustaineable-food</title>
    <desc>Created with Sketch.</desc>
    <defs>
        <linearGradient x1="82.1997704%" y1="2.83306581%" x2="31.4946816%" y2="95.5501354%" id="linearGradient-1">
            <stop stop-color="#FFFFFF" stop-opacity="0.95" offset="0%"></stop>
            <stop stop-color="#FFFFFF" stop-opacity="0.4" offset="100%"></stop>
        </linearGradient>
        <linearGradient x1="50.874635%" y1="97.8567981%" x2="49.9962991%" y2="0.439259855%" id="linearGradient-2">
            <stop stop-color="#638783" offset="0%"></stop>
            <stop stop-color="#638783" stop-opacity="0.8654" offset="13.46%"></stop>
            <stop stop-color="#638783" stop-opacity="0" offset="100%"></stop>
        </linearGradient>
        <linearGradient x1="42.9868907%" y1="52.4938272%" x2="68.455281%" y2="43.2563544%" id="linearGradient-3">
            <stop stop-color="#638783" offset="0%"></stop>
            <stop stop-color="#638783" stop-opacity="0.8654" offset="13.46%"></stop>
            <stop stop-color="#638783" stop-opacity="0" offset="100%"></stop>
        </linearGradient>
        <linearGradient x1="37.6430331%" y1="82.2530579%" x2="58.5113745%" y2="10.6485764%" id="linearGradient-4">
            <stop stop-color="#638783" offset="0%"></stop>
            <stop stop-color="#638783" stop-opacity="0.8654" offset="13.46%"></stop>
            <stop stop-color="#638783" stop-opacity="0" offset="100%"></stop>
        </linearGradient>
    </defs>
    <g id="investment-options-sustaineable-food" stroke="none" stroke-width="1" fill="none" fill-rule="evenodd">
        <g id="icon/104px/food">
            <g id="food---White" transform="translate(37.500000, 23.076923)">
                <path d="M80.8961538,153.6 C76.0634615,153.6 70.9711538,151.598077 65.7576923,147.648077 C63.8730769,146.228846 60.9903846,146.226923 59.0903846,147.655769 C53.8903846,151.596154 48.7961538,153.598077 43.9615385,153.598077 C34.4173077,153.598077 23.5519231,145.496154 14.1461538,131.369231 C5.58269231,118.505769 0.261538462,103.538462 0.261538462,92.3115385 C0.261538462,68.2153846 19.8634615,48.6134615 43.9615385,48.6134615 C48.6653846,48.6134615 53.3192308,49.3692308 57.7903846,50.8576923 L58.3057692,51.0288462 L58.3057692,43.0634615 C58.3057692,37.9288462 56.3057692,33.1 52.6730769,29.4653846 L45.0057692,21.7961538 C44.225,21.0153846 43.7942308,19.9769231 43.7980769,18.8711538 C43.8,17.7961538 44.2096154,16.7865385 44.9538462,16.0173077 C46.5192308,14.3865385 49.4403846,14.4192308 50.9615385,16.0980769 L59.4730769,24.6461538 L59.6653846,24 C63.8057692,10.0153846 76.8769231,0.246153846 91.4519231,0.246153846 L115.634615,0.246153846 C117.909615,0.246153846 119.761538,2.09615385 119.761538,4.36923077 C119.761538,22.6461538 104.892308,37.5153846 86.6153846,37.5153846 L72.1057692,37.5153846 C69.0461538,37.5153846 66.5576923,40.0038462 66.5576923,43.0634615 L66.5576923,51.0307692 L67.0711538,50.8596154 C71.5461538,49.3692308 76.1980769,48.6153846 80.8980769,48.6153846 C104.994231,48.6153846 124.598077,68.2173077 124.598077,92.3134615 C124.598077,103.540385 119.278846,118.505769 110.715385,131.371154 C101.307692,145.498077 90.4423077,153.6 80.8961538,153.6 Z M62.4365385,138.853846 C65.2923077,138.853846 68.1192308,139.796154 70.3961538,141.509615 C74.2519231,144.430769 77.7826923,145.907692 80.8980769,145.907692 C87.6211538,145.907692 96.5923077,138.703846 104.311538,127.109615 C112.078846,115.438462 116.905769,102.107692 116.905769,92.3153846 C116.905769,72.4615385 100.753846,56.3096154 80.8980769,56.3096154 C77.025,56.3096154 73.1903846,56.9326923 69.5,58.1596154 L63.9269231,60.0153846 C63.4442308,60.1769231 62.9365385,60.2403846 62.4403846,60.2038462 C61.9384615,60.2403846 61.4288462,60.1807692 60.9403846,60.0173077 L55.3653846,58.1596154 C51.6788462,56.9326923 47.8423077,56.3096154 43.9653846,56.3096154 C24.1115385,56.3096154 7.95769231,72.4615385 7.95769231,92.3153846 C7.95769231,102.107692 12.7846154,115.440385 20.5538462,127.109615 C28.2730769,138.705769 37.2442308,145.907692 43.9653846,145.907692 C47.0846154,145.907692 50.6153846,144.430769 54.4596154,141.517308 C56.7442308,139.796154 59.5730769,138.853846 62.4365385,138.853846 Z M91.45,7.93846154 C80.2576923,7.93846154 70.2192308,15.4403846 67.0403846,26.1826923 L65.4269231,31.6326923 C67.3884615,30.4826923 69.6692308,29.8230769 72.1038462,29.8230769 L86.6134615,29.8230769 C99.4384615,29.8230769 110.076923,20.2903846 111.817308,7.93846154 L91.45,7.93846154 Z" id="Shape" fill="url(#linearGradient-1)" fill-rule="nonzero"></path>
                <path d="M58.3057692,51.0307692 L58.3057692,43.0653846 C58.3057692,42.0826923 58.0884615,40.1576923 58.0884615,40.1576923 C58.0884615,40.1576923 64,40.3057692 67.2519231,40.3788462 C66.8096154,41.175 66.5557692,42.0923077 66.5557692,43.0673077 L66.5557692,51.0346154 L62.4288462,52.1096154 L58.3057692,51.0307692 Z" id="Path" fill="url(#linearGradient-2)" fill-rule="nonzero" opacity="0.25"></path>
                <path d="M72.1038462,37.5153846 C69.0442308,37.5153846 66.5557692,40.0038462 66.5557692,43.0634615 C66.5557692,43.0634615 66.6076923,38.4807692 66.5480769,36.9173077 C66.4211538,33.5423077 65.4269231,31.6326923 65.4269231,31.6326923 C67.3884615,30.4826923 69.6692308,29.8230769 72.1038462,29.8230769 L72.1038462,37.5153846 L72.1038462,37.5153846 Z" id="Path" fill="url(#linearGradient-3)" fill-rule="nonzero" opacity="0.25"></path>
                <path d="M72.1019231,16.9 C69.8230769,19.5557692 68.0711538,22.7 67.0403846,26.1826923 L65.4269231,31.6326923 C65.4269231,31.6326923 64.7134615,29.8230769 62.7692308,27.8730769 C61.7134615,26.8153846 59.4711538,24.6442308 59.4711538,24.6442308 L59.6634615,23.9980769 C60.8769231,19.8980769 62.8596154,16.1596154 65.4211538,12.9230769 C68.1576923,14.8134615 69.4557692,14.9576923 72.1019231,16.9 Z" id="Path" fill="url(#linearGradient-4)" fill-rule="nonzero" opacity="0.25"></path>
            </g>
        </g>
    </g>
</svg>