<?xml version="1.0" encoding="UTF-8"?>
<svg width="200px" height="200px" viewBox="0 0 200 200" version="1.1" xmlns="http://www.w3.org/2000/svg" xmlns:xlink="http://www.w3.org/1999/xlink">
    <!-- Generator: Sketch 64 (93537) - https://sketch.com -->
    <title>investment-options-clean-technology</title>
    <desc>Created with Sketch.</desc>
    <defs>
        <linearGradient x1="89.8813456%" y1="5.55165764%" x2="26.0572501%" y2="98.1178924%" id="linearGradient-1">
            <stop stop-color="#FFFFFF" stop-opacity="0.95" offset="0%"></stop>
            <stop stop-color="#FFFFFF" stop-opacity="0.4" offset="100%"></stop>
        </linearGradient>
        <linearGradient x1="49.3713008%" y1="82.1495187%" x2="50.618177%" y2="17.1061071%" id="linearGradient-2">
            <stop stop-color="#638783" offset="0%"></stop>
            <stop stop-color="#638783" stop-opacity="0.8654" offset="13.46%"></stop>
            <stop stop-color="#638783" stop-opacity="0" offset="100%"></stop>
        </linearGradient>
        <linearGradient x1="50.8652225%" y1="17.0508109%" x2="49.1788818%" y2="80.942552%" id="linearGradient-3">
            <stop stop-color="#638783" stop-opacity="0" offset="0%"></stop>
            <stop stop-color="#638783" stop-opacity="0.8654" offset="86.54%"></stop>
            <stop stop-color="#638783" offset="100%"></stop>
        </linearGradient>
        <linearGradient x1="53.3539532%" y1="-1.42445813%" x2="46.5934142%" y2="102.247461%" id="linearGradient-4">
            <stop stop-color="#638783" offset="0%"></stop>
            <stop stop-color="#638783" stop-opacity="0.2" offset="53.22%"></stop>
            <stop stop-color="#638783" offset="100%"></stop>
        </linearGradient>
        <linearGradient x1="21.6900416%" y1="-14.6092938%" x2="71.8214662%" y2="100.898984%" id="linearGradient-5">
            <stop stop-color="#638783" offset="0%"></stop>
            <stop stop-color="#638783" stop-opacity="0.2" offset="53.22%"></stop>
            <stop stop-color="#638783" offset="100%"></stop>
        </linearGradient>
    </defs>
    <g id="investment-options-clean-technology" stroke="none" stroke-width="1" fill="none" fill-rule="evenodd">
        <g id="icon/104px/solar-panel">
            <g id="solar-panel" transform="translate(11.538462, 13.461538)">
                <path d="M176.871235,136.711538 L164.815466,65.8096154 C164.413543,63.7961538 162.805851,62.3884615 160.796235,62.3884615 L113.980851,62.3884615 C116.190466,58.7653846 117.798158,54.7403846 118.402005,50.3134615 L130.659697,50.3134615 C132.869312,50.3134615 134.678928,48.5019231 134.678928,46.2884615 C134.678928,44.075 132.871235,42.2634615 130.659697,42.2634615 L118.202005,42.2634615 C117.600081,37.0307692 115.388543,32 112.375081,27.975 L121.215466,19.1192308 C122.823158,17.5096154 122.823158,15.0942308 121.215466,13.4846154 C119.607774,11.875 117.196235,11.875 115.588543,13.4846154 L106.748158,22.1384615 C102.728928,19.1192308 97.9077738,16.9057692 92.4827738,16.3019231 L92.4827738,4.025 C92.4808507,1.81153846 90.6731584,0 88.46162,0 C86.2520046,0 84.4423892,1.81153846 84.4423892,4.025 L84.4423892,16.3019231 C79.2173892,17.1076923 74.1943123,19.1192308 70.1770046,22.1384615 L61.33662,13.4846154 C59.7289276,11.875 57.3173892,11.875 55.7096969,13.4846154 C54.1020046,15.0942308 54.1020046,17.5096154 55.7096969,19.1192308 L64.5500815,27.975 C61.3346969,32 59.3250815,36.8307692 58.7231584,42.2634615 L46.2654661,42.2634615 C44.0558507,42.2634615 42.2462353,44.075 42.2462353,46.2884615 C42.2462353,48.5019231 44.0539276,50.3134615 46.2654661,50.3134615 L58.7231584,50.3134615 C59.3250815,54.7403846 60.7327738,58.7653846 63.1443123,62.3884615 L16.1270046,62.3884615 C14.1173892,62.3884615 12.5096969,63.7980769 12.1077738,65.8096154 L0.0520045656,136.711538 C-0.147995434,137.919231 0.252004566,139.126923 0.855850719,139.930769 C1.65969687,140.736538 2.8654661,141.340385 4.07123533,141.340385 L74.3981584,141.340385 L67.5654661,165.384615 L57.6808507,165.384615 C55.4712353,165.384615 53.8404661,167.017308 53.8404661,169.230769 C53.8404661,171.444231 55.4693123,173.076923 57.6808507,173.076923 L70.3789276,173.076923 L70.3789276,173.076923 L70.3789276,173.076923 L106.546235,173.076923 L106.546235,173.076923 L119.200081,173.076923 C121.409697,173.076923 123.075081,171.469231 123.075081,169.255769 C123.075081,167.042308 121.41162,165.4 119.200081,165.4 L109.56162,165.4 L102.528928,141.340385 L172.855851,141.340385 C174.06162,141.340385 175.267389,140.736538 175.869312,139.930769 C176.671235,138.925 177.073158,137.717308 176.871235,136.711538 Z M119.203928,70.4384615 L123.021235,98.6134615 L92.4808507,98.6134615 L92.4808507,70.4384615 L119.203928,70.4384615 Z M88.46162,24.15 C100.719312,24.15 110.563543,34.0115385 110.563543,46.2884615 C110.563543,52.5269231 107.952005,58.3634615 103.530851,62.3884615 L73.3923892,62.3884615 C69.1731584,58.3634615 66.3596969,52.5269231 66.3596969,46.2884615 C66.3596969,34.0115385 76.2058507,24.15 88.46162,24.15 Z M57.7193123,70.4384615 L84.4423892,70.4384615 L84.4423892,98.6134615 L53.9020046,98.6134615 L57.7193123,70.4384615 Z M40.8404661,134.619231 L8.89238918,134.619231 L13.513543,106.663462 L44.6577738,106.663462 L40.8404661,134.619231 Z M14.9212353,98.6134615 L19.5423892,70.4384615 L49.6827738,70.4384615 L45.8654661,98.6134615 L14.9212353,98.6134615 Z M48.8789276,134.619231 L52.6962353,106.663462 L84.4443123,106.663462 L84.4443123,134.619231 L48.8789276,134.619231 Z M75.8039276,165.384615 L82.6346969,141.340385 L94.088543,141.340385 L100.919312,165.384615 L75.8039276,165.384615 Z M92.4808507,134.619231 L92.4808507,106.663462 L124.228928,106.663462 L128.046235,134.619231 L92.4808507,134.619231 L92.4808507,134.619231 Z M127.242389,70.4384615 L157.382774,70.4384615 L162.003928,98.6134615 L131.059697,98.6134615 L127.242389,70.4384615 Z M136.082774,134.619231 L132.265466,106.663462 L163.409697,106.663462 L168.030851,134.619231 L136.082774,134.619231 Z" id="Shape" fill="url(#linearGradient-1)" fill-rule="nonzero"></path>
                <path d="M66.8154661,50.5673077 L58.7731584,50.5673077 C59.3943123,54.8923077 60.7827738,58.8365385 63.1462353,62.3884615 L73.3943123,62.3884615 C70.1577738,59.3019231 67.76162,55.1480769 66.8154661,50.5673077 Z" id="Path" fill="url(#linearGradient-2)" fill-rule="nonzero" opacity="0.3"></path>
                <path d="M110.150081,50.5673077 L118.357774,50.5673077 C117.73662,54.8923077 116.259697,58.575 113.980851,62.3884615 L103.532774,62.3884615 C106.767389,59.3019231 109.067389,55.7673077 110.150081,50.5673077 Z" id="Path" fill="url(#linearGradient-3)" fill-rule="nonzero" opacity="0.3"></path>
                <polygon id="Path" fill="url(#linearGradient-4)" fill-rule="nonzero" opacity="0.3" points="75.8039276 165.384615 82.6346969 141.340385 74.3962353 141.340385 67.5654661 165.384615"></polygon>
                <polygon id="Path" fill="url(#linearGradient-5)" fill-rule="nonzero" opacity="0.3" points="100.919312 165.384615 94.088543 141.340385 102.527005 141.340385 109.559697 165.384615"></polygon>
            </g>
        </g>
    </g>
</svg>