<?xml version="1.0" encoding="UTF-8"?>
<svg width="200px" height="200px" viewBox="0 0 200 200" version="1.1" xmlns="http://www.w3.org/2000/svg" xmlns:xlink="http://www.w3.org/1999/xlink">
    <!-- Generator: Sketch 64 (93537) - https://sketch.com -->
    <title>investment-options-recycling</title>
    <desc>Created with Sketch.</desc>
    <defs>
        <linearGradient x1="78.9193533%" y1="29.1961119%" x2="-14.5260817%" y2="125.547121%" id="linearGradient-1">
            <stop stop-color="#FFFFFF" stop-opacity="0.95" offset="0%"></stop>
            <stop stop-color="#FFFFFF" stop-opacity="0.4" offset="100%"></stop>
        </linearGradient>
        <linearGradient x1="125.243557%" y1="-68.8207022%" x2="30.9170013%" y2="95.1807314%" id="linearGradient-2">
            <stop stop-color="#FFFFFF" stop-opacity="0.95" offset="0%"></stop>
            <stop stop-color="#FFFFFF" stop-opacity="0.4" offset="100%"></stop>
        </linearGradient>
        <linearGradient x1="97.2356771%" y1="-11.7170959%" x2="-0.878037517%" y2="142.980222%" id="linearGradient-3">
            <stop stop-color="#FFFFFF" stop-opacity="0.95" offset="0%"></stop>
            <stop stop-color="#FFFFFF" stop-opacity="0.4" offset="100%"></stop>
        </linearGradient>
        <linearGradient x1="56.2502366%" y1="-56.2337549%" x2="47.9580243%" y2="84.7134758%" id="linearGradient-4">
            <stop stop-color="#57BF9B" offset="0%"></stop>
            <stop stop-color="#4FBEA0" offset="25.47%"></stop>
            <stop stop-color="#39BDAC" offset="65.04%"></stop>
            <stop stop-color="#20BBBB" offset="100%"></stop>
        </linearGradient>
        <linearGradient x1="6.32065017%" y1="50.6060264%" x2="94.824529%" y2="49.6026525%" id="linearGradient-5">
            <stop stop-color="#638783" offset="0%"></stop>
            <stop stop-color="#638783" stop-opacity="0.8654" offset="13.46%"></stop>
            <stop stop-color="#638783" stop-opacity="0" offset="100%"></stop>
        </linearGradient>
        <linearGradient x1="66.568875%" y1="13.2529227%" x2="39.0204772%" y2="87.4842831%" id="linearGradient-6">
            <stop stop-color="#638783" offset="0%"></stop>
            <stop stop-color="#638783" stop-opacity="0.8654" offset="13.46%"></stop>
            <stop stop-color="#638783" stop-opacity="0" offset="100%"></stop>
        </linearGradient>
        <linearGradient x1="73.547296%" y1="103.124969%" x2="25.8060111%" y2="15.1927938%" id="linearGradient-7">
            <stop stop-color="#638783" offset="0%"></stop>
            <stop stop-color="#638783" stop-opacity="0.8654" offset="13.46%"></stop>
            <stop stop-color="#638783" stop-opacity="0" offset="100%"></stop>
        </linearGradient>
        <linearGradient x1="42.9711359%" y1="100.460643%" x2="57.5388083%" y2="7.93470008%" id="linearGradient-8">
            <stop stop-color="#638783" offset="0%"></stop>
            <stop stop-color="#638783" stop-opacity="0.8654" offset="13.46%"></stop>
            <stop stop-color="#638783" stop-opacity="0" offset="100%"></stop>
        </linearGradient>
        <linearGradient x1="21.2129989%" y1="32.8771615%" x2="87.6895506%" y2="69.2936588%" id="linearGradient-9">
            <stop stop-color="#638783" offset="0%"></stop>
            <stop stop-color="#638783" stop-opacity="0.8654" offset="13.46%"></stop>
            <stop stop-color="#638783" stop-opacity="0" offset="100%"></stop>
        </linearGradient>
        <linearGradient x1="90.3026265%" y1="37.7583021%" x2="11.8252227%" y2="66.123873%" id="linearGradient-10">
            <stop stop-color="#638783" offset="0%"></stop>
            <stop stop-color="#638783" stop-opacity="0.8654" offset="13.46%"></stop>
            <stop stop-color="#638783" stop-opacity="0" offset="100%"></stop>
        </linearGradient>
    </defs>
    <g id="investment-options-recycling" stroke="none" stroke-width="1" fill="none" fill-rule="evenodd">
        <g id="icon/104px/recycling">
            <g id="recycle" transform="translate(19.230769, 24.038462)">
                <g id="Group" fill-rule="nonzero">
                    <path d="M38.575,49.0711538 L57.6115385,60.0557692 C59.2673077,61.0115385 61.2596154,61.2711538 63.1076923,60.775 C64.9807692,60.2730769 66.5442308,59.0769231 67.5096154,57.4057692 L80.7692308,34.45 L86.7423077,44.7903846 L83.5,46.6615385 C82.2923077,47.3576923 81.5942308,48.7057692 81.7230769,50.0942308 C81.8519231,51.4826923 82.7846154,52.6769231 84.1,53.1403846 L115.957692,64.3519231 C116.340385,64.4865385 116.742308,64.5557692 117.148077,64.5557692 C117.776923,64.5557692 118.396154,64.3903846 118.940385,64.075 C119.848077,63.5519231 120.478846,62.6615385 120.671154,61.6326923 L126.884615,28.4538462 C127.142308,27.0826923 126.573077,25.6769231 125.432692,24.8711538 C124.290385,24.0653846 122.778846,23.9942308 121.571154,24.6923077 L118.328846,26.5634615 L108.126923,8.90192308 C105.080769,3.62884615 101.811538,0.575 94.1288462,0.575 L67.4076923,0.575 C59.7230769,0.575 56.4557692,3.62884615 53.4096154,8.90192308 L35.9211538,39.1769231 C34.9557692,40.8461538 34.7,42.7980769 35.2019231,44.6711538 C35.7019231,46.5442308 36.9019231,48.1057692 38.575,49.0711538 Z M95.0980769,47.0269231 C95.3442308,46.1173077 95.2134615,45.125 94.7403846,44.3096154 L73.6134615,7.73846154 L94.1307692,7.73846154 C98.5173077,7.73846154 99.7961538,8.80769231 101.921154,12.4846154 L113.915385,33.2461538 C114.828846,34.8269231 116.775,35.4461538 118.415385,34.7538462 L114.396154,56.2076923 L93.7961538,48.9576923 C94.4288462,48.4807692 94.8942308,47.7961538 95.0980769,47.0269231 Z M61.6884615,54.0461538 L61.1942308,53.8519231 L42.1576923,42.8673077 L41.9346154,43.2538462 L42.1288462,42.7576923 L59.6192308,12.4826923 C61.4038462,9.39230769 62.5788462,8.18269231 65.4019231,7.84230769 L76.6326923,27.2846154 L61.3019231,53.8211538 L61.6884615,54.0461538 Z" id="Shape" fill="url(#linearGradient-1)"></path>
                    <path d="M65.0480769,107.571154 L38.5269231,107.571154 L44.5019231,97.2307692 L47.7442308,99.1019231 C48.9557692,99.8 50.4692308,99.7288462 51.6057692,98.9230769 C52.7461538,98.1173077 53.3153846,96.7115385 53.0576923,95.3423077 L46.8442308,62.1615385 C46.65,61.1326923 46.0192308,60.2423077 45.1134615,59.7211538 C44.2076923,59.1961538 43.1173077,59.0942308 42.1307692,59.4442308 L10.2730769,70.6557692 C8.95961538,71.1173077 8.025,72.3134615 7.89615385,73.7019231 C7.76730769,75.0903846 8.46346154,76.4365385 9.67307692,77.1346154 L12.9153846,79.0057692 L2.71153846,96.6653846 C-0.334615385,101.940385 -1.34615385,106.294231 2.49615385,112.942308 L15.8576923,136.073077 C19.7,142.723077 23.9788462,144.023077 30.0730769,144.023077 L65.05,144.023077 C69.0461538,144.023077 72.2961538,140.775 72.2961538,136.780769 L72.2961538,114.813462 C72.2961538,110.821154 69.0442308,107.571154 65.0480769,107.571154 Z M65.1288462,114.813462 L65.1288462,136.780769 C65.1288462,136.815385 65.0826923,136.861538 65.0480769,136.861538 L30.0711538,136.861538 C26.5019231,136.861538 24.8653846,136.448077 23.1596154,134.176923 L34.3923077,114.732692 L65.05,114.732692 C65.0807692,114.732692 65.1288462,114.778846 65.1288462,114.813462 Z M21.2692308,76.7673077 C21.0596154,75.9865385 20.6038462,75.3134615 19.9692308,74.8365385 L40.5673077,67.5865385 L44.5865385,89.0403846 C43.8519231,88.7269231 43.0461538,88.6692308 42.2615385,88.8788462 C41.3365385,89.1269231 40.5634615,89.7192308 40.0865385,90.5480769 L18.9596154,127.119231 L8.70192308,109.361538 C6.50961538,105.565385 6.79615385,103.923077 8.91923077,100.246154 L20.9115385,79.4846154 C21.3903846,78.6557692 21.5173077,77.6903846 21.2692308,76.7673077 Z" id="Shape" fill="url(#linearGradient-2)"></path>
                    <path d="M158.826923,96.6653846 L141.336538,66.3903846 C140.369231,64.7173077 138.805769,63.5211538 136.934615,63.0192308 C135.065385,62.5173077 133.111538,62.7730769 131.438462,63.7403846 L112.401923,74.7230769 C110.728846,75.6884615 109.528846,77.25 109.028846,79.1211538 C108.526923,80.9923077 108.782692,82.9442308 109.748077,84.6173077 L123.009615,107.571154 L111.061538,107.571154 L111.061538,103.830769 C111.061538,102.438462 110.242308,101.159615 108.975,100.576923 C107.705769,99.9942308 106.205769,100.203846 105.144231,101.111538 L79.5019231,123.076923 C78.7076923,123.757692 78.2519231,124.75 78.2519231,125.796154 C78.2519231,126.842308 78.7076923,127.834615 79.5019231,128.515385 L105.146154,150.482692 C105.796154,151.038462 106.625,151.344231 107.480769,151.344231 C108.001923,151.344231 108.505769,151.232692 108.978846,151.015385 C110.246154,150.432692 111.065385,149.155769 111.065385,147.761538 L111.065385,144.019231 L131.469231,144.019231 C137.561538,144.019231 141.840385,142.717308 145.684615,136.069231 L159.046154,112.938462 C162.884615,106.292308 161.873077,101.938462 158.826923,96.6653846 Z M135.128846,69.9730769 L135.128846,69.9730769 L152.619231,100.246154 C154.403846,103.334615 154.863462,104.957692 153.746154,107.571154 L131.286538,107.571154 L115.957692,81.0365385 L115.986538,80.9269231 L135.023077,69.9423077 L135.128846,69.9730769 Z M149.734615,114.732692 L139.475,132.490385 C137.282692,136.286538 135.717308,136.861538 131.467308,136.861538 L107.480769,136.861538 C105.653846,136.861538 104.142308,138.234615 103.923077,140.001923 L87.3423077,125.798077 L103.923077,111.594231 C104.140385,113.361538 105.653846,114.734615 107.480769,114.734615 L149.734615,114.734615 L149.734615,114.732692 Z" id="Shape" fill="url(#linearGradient-3)"></path>
                </g>
                <path d="M65.0480769,114.732692 C65.0807692,114.732692 65.1288462,114.778846 65.1288462,114.813462 L65.1288462,136.780769" id="Path" fill="url(#linearGradient-4)" fill-rule="nonzero"></path>
                <polygon id="Path" fill="url(#linearGradient-5)" fill-rule="nonzero" opacity="0.25" points="55.2153846 107.571154 38.5269231 107.571154 34.3923077 114.732692 55.1384615 114.732692"></polygon>
                <polygon id="Path" fill="url(#linearGradient-6)" fill-rule="nonzero" opacity="0.25" points="72.4 48.9384615 80.7692308 34.45 76.6307692 27.2865385 66.2903846 45.1884615"></polygon>
                <polygon id="Path" fill="url(#linearGradient-7)" fill-rule="nonzero" opacity="0.25" points="114.690385 93.1692308 123.011538 107.571154 131.286538 107.571154 120.95 89.6769231"></polygon>
                <path d="M149.898077,95.5365385 L152.619231,100.246154 C154.403846,103.334615 154.863462,104.957692 153.746154,107.571154 L161.248077,107.571154 C162.109615,103.642308 160.973077,100.382692 158.826923,96.6653846 L156.348077,92.375 L149.898077,95.5365385 Z" id="Path" fill="url(#linearGradient-8)" fill-rule="nonzero" opacity="0.25"></path>
                <path d="M35.4846154,136.890385 L30.0461538,136.878846 C26.4788462,136.871154 24.8442308,136.453846 23.1461538,134.175 L19.3788462,140.661538 C22.3442308,143.380769 25.7326923,144.034615 30.0269231,144.044231 L34.9807692,144.055769 L35.4846154,136.890385 Z" id="Path" fill="url(#linearGradient-9)" fill-rule="nonzero" opacity="0.25"></path>
                <path d="M56.8865385,17.2134615 L59.6038462,12.5019231 C61.3942308,9.41538462 62.5769231,8.17692308 65.4,7.84423077 L61.6653846,1.34807692 C57.8288462,2.55769231 55.5596154,5.18846154 53.4057692,8.90192308 L50.925,13.2019231 L56.8865385,17.2134615 Z" id="Path" fill="url(#linearGradient-10)" fill-rule="nonzero" opacity="0.25"></path>
            </g>
        </g>
    </g>
</svg>