<?xml version="1.0" encoding="UTF-8"?>
<svg width="200px" height="200px" viewBox="0 0 200 200" version="1.1" xmlns="http://www.w3.org/2000/svg" xmlns:xlink="http://www.w3.org/1999/xlink">
    <!-- Generator: Sketch 64 (93537) - https://sketch.com -->
    <title>investment-options-clean-water</title>
    <desc>Created with Sketch.</desc>
    <defs>
        <linearGradient x1="117.968284%" y1="-38.8723077%" x2="26.4426701%" y2="88.9034615%" id="linearGradient-1">
            <stop stop-color="#FFFFFF" stop-opacity="0.95" offset="0%"></stop>
            <stop stop-color="#FFFFFF" stop-opacity="0.4" offset="100%"></stop>
        </linearGradient>
        <linearGradient x1="82.5680113%" y1="11.0272769%" x2="-33.9453792%" y2="170.989239%" id="linearGradient-2">
            <stop stop-color="#FFFFFF" stop-opacity="0.95" offset="0%"></stop>
            <stop stop-color="#FFFFFF" stop-opacity="0.4" offset="100%"></stop>
        </linearGradient>
        <linearGradient x1="26.721891%" y1="6.13836691%" x2="65.6096548%" y2="83.6795548%" id="linearGradient-3">
            <stop stop-color="#638783" offset="0%"></stop>
            <stop stop-color="#638783" stop-opacity="0.8654" offset="13.46%"></stop>
            <stop stop-color="#638783" stop-opacity="0" offset="100%"></stop>
        </linearGradient>
        <linearGradient x1="26.723018%" y1="6.14086832%" x2="65.6096548%" y2="83.6820562%" id="linearGradient-4">
            <stop stop-color="#638783" offset="0%"></stop>
            <stop stop-color="#638783" stop-opacity="0.8654" offset="13.46%"></stop>
            <stop stop-color="#638783" stop-opacity="0" offset="100%"></stop>
        </linearGradient>
    </defs>
    <g id="investment-options-clean-water" stroke="none" stroke-width="1" fill="none" fill-rule="evenodd">
        <g id="icon/104px/water">
            <g id="water" transform="translate(38.461538, 26.923077)">
                <path d="M36.5384615,55.675 C40.1865385,60.6730769 47.0076923,70.3096154 53.0653846,80.5038462 C63.2480769,97.6384615 65.3846154,106.225 65.3846154,110.411538 C65.3846154,126.886538 52.4442308,140.290385 36.5384615,140.290385 C20.6326923,140.290385 7.69230769,126.886538 7.69230769,110.411538 C7.69230769,106.225 9.82884615,97.6384615 20.0115385,80.5038462 C26.0692308,70.3096154 32.8903846,60.6711538 36.5384615,55.675 M36.5384615,47.9826923 C36.5384615,47.9826923 36.5384615,47.9826923 36.5384615,47.9826923 C34.0826923,47.9826923 31.7730769,49.1557692 30.325,51.1403846 C26.6846154,56.1288462 19.6442308,66.0653846 13.3980769,76.575 C4.38269231,91.7461538 0,102.815385 0,110.411538 C0,131.128846 16.3903846,147.982692 36.5384615,147.982692 C56.6865385,147.982692 73.0769231,131.128846 73.0769231,110.411538 C73.0769231,102.813462 68.6942308,91.7461538 59.6788462,76.575 C53.4307692,66.0596154 46.3923077,56.125 42.7519231,51.1403846 C41.3038462,49.1557692 38.9942308,47.9826923 36.5384615,47.9826923 L36.5384615,47.9826923 Z" id="Shape" fill="url(#linearGradient-1)" fill-rule="nonzero"></path>
                <path d="M94.2307692,7.69230769 C97.0115385,11.5019231 102.209615,18.8480769 106.826923,26.6173077 C114.588462,39.6769231 116.217308,46.2211538 116.217308,49.4134615 C116.217308,61.9711538 106.353846,72.1865385 94.2307692,72.1865385 C82.1076923,72.1865385 72.2442308,61.9711538 72.2442308,49.4134615 C72.2442308,46.2230769 73.8730769,39.6769231 81.6346154,26.6173077 C86.2519231,18.8480769 91.45,11.5019231 94.2307692,7.69230769 M94.2307692,6.83214169e-15 C94.2307692,6.83214169e-15 94.2307692,6.83214169e-15 94.2307692,6.83214169e-15 C91.775,6.83214169e-15 89.4653846,1.17307692 88.0173077,3.15769231 C85.2230769,6.98461538 79.8211538,14.6115385 75.0211538,22.6884615 C67.9769231,34.5423077 64.5519231,43.2846154 64.5519231,49.4134615 C64.5519231,66.2115385 77.8653846,79.8788462 94.2307692,79.8788462 C110.596154,79.8788462 123.909615,66.2115385 123.909615,49.4134615 C123.909615,43.2846154 120.484615,34.5423077 113.440385,22.6884615 C108.638462,14.6076923 103.236538,6.98461538 100.444231,3.15769231 C98.9961538,1.17307692 96.6865385,6.83214169e-15 94.2307692,6.83214169e-15 L94.2307692,6.83214169e-15 Z" id="Shape" fill="url(#linearGradient-2)" fill-rule="nonzero"></path>
                <path d="M36.5384615,55.675 C38.3615385,58.1730769 40.9788462,61.8326923 43.8980769,66.1403846 C47.3192308,64.1865385 48.0576923,63.6576923 50.3942308,62.0153846 C47.3346154,57.4923077 44.6038462,53.675 42.7519231,51.1403846 C41.3038462,49.1557692 36.5384615,55.675 36.5384615,55.675 Z" id="Path" fill="url(#linearGradient-3)" fill-rule="nonzero" opacity="0.25"></path>
                <path d="M94.2307692,7.73269231 C96.0538462,10.2307692 98.6711538,13.8903846 101.590385,18.1980769 C105.011538,16.2442308 105.75,15.7153846 108.086538,14.0730769 C105.026923,9.55 102.296154,5.73269231 100.444231,3.19807692 C98.9961538,1.21346154 94.2307692,7.73269231 94.2307692,7.73269231 Z" id="Path" fill="url(#linearGradient-4)" fill-rule="nonzero" opacity="0.25"></path>
            </g>
        </g>
    </g>
</svg>