<?xml version="1.0" encoding="UTF-8"?>
<svg width="200px" height="200px" viewBox="0 0 200 200" version="1.1" xmlns="http://www.w3.org/2000/svg" xmlns:xlink="http://www.w3.org/1999/xlink">
    <!-- Generator: Sketch 64 (93537) - https://sketch.com -->
    <title>investment-options-clean-energy</title>
    <desc>Created with Sketch.</desc>
    <defs>
        <linearGradient x1="74.8692373%" y1="6.69211111%" x2="12.2746534%" y2="100%" id="linearGradient-1">
            <stop stop-color="#FFFFFF" stop-opacity="0.95" offset="0%"></stop>
            <stop stop-color="#FFFFFF" stop-opacity="0.3" offset="100%"></stop>
        </linearGradient>
        <linearGradient x1="111.333888%" y1="-16.1981682%" x2="1.86427977%" y2="101.959201%" id="linearGradient-2">
            <stop stop-color="#02C0BF" offset="0.09935702%"></stop>
            <stop stop-color="#04C0BE" offset="2.18%"></stop>
            <stop stop-color="#28C7AE" offset="44.03%"></stop>
            <stop stop-color="#3ECBA5" offset="78.13%"></stop>
            <stop stop-color="#46CCA1" offset="100%"></stop>
        </linearGradient>
        <linearGradient x1="71.0300855%" y1="1.16722681%" x2="4.79543113%" y2="91.4597148%" id="linearGradient-3">
            <stop stop-color="#638783" offset="0%"></stop>
            <stop stop-color="#638783" stop-opacity="0.8654" offset="13.46%"></stop>
            <stop stop-color="#638783" stop-opacity="0" offset="100%"></stop>
        </linearGradient>
        <linearGradient x1="0%" y1="42.9828761%" x2="79.0379065%" y2="57.0171239%" id="linearGradient-4">
            <stop stop-color="#638783" offset="0%"></stop>
            <stop stop-color="#638783" stop-opacity="0" offset="100%"></stop>
        </linearGradient>
        <linearGradient x1="88.8913181%" y1="93.8114638%" x2="88.8913181%" y2="0%" id="linearGradient-5">
            <stop stop-color="#638783" offset="0%"></stop>
            <stop stop-color="#638783" stop-opacity="0.8654" offset="20.4953157%"></stop>
            <stop stop-color="#638783" stop-opacity="0" offset="100%"></stop>
        </linearGradient>
        <linearGradient x1="14.9462859%" y1="92.3723688%" x2="14.9462859%" y2="0%" id="linearGradient-6">
            <stop stop-color="#638783" offset="0%"></stop>
            <stop stop-color="#638783" stop-opacity="0.8654" offset="13.46%"></stop>
            <stop stop-color="#638783" stop-opacity="0" offset="100%"></stop>
        </linearGradient>
        <linearGradient x1="95.8753021%" y1="41.8884828%" x2="0.549146642%" y2="63.4073048%" id="linearGradient-7">
            <stop stop-color="#638783" offset="0%"></stop>
            <stop stop-color="#638783" stop-opacity="0.8654" offset="13.46%"></stop>
            <stop stop-color="#638783" stop-opacity="0" offset="100%"></stop>
        </linearGradient>
        <linearGradient x1="81.0843893%" y1="24.0590359%" x2="13.386777%" y2="72.7636659%" id="linearGradient-8">
            <stop stop-color="#638783" offset="0%"></stop>
            <stop stop-color="#5F8784" stop-opacity="0.9806" offset="1.94%"></stop>
            <stop stop-color="#448987" stop-opacity="0.8444" offset="15.56%"></stop>
            <stop stop-color="#308B8A" stop-opacity="0.6947" offset="30.53%"></stop>
            <stop stop-color="#218C8C" stop-opacity="0.5266" offset="47.34%"></stop>
            <stop stop-color="#198D8D" stop-opacity="0.3248" offset="67.52%"></stop>
            <stop stop-color="#168D8D" stop-opacity="0" offset="100%"></stop>
        </linearGradient>
        <linearGradient x1="30.3571093%" y1="30.8126877%" x2="80.6978386%" y2="72.0990761%" id="linearGradient-9">
            <stop stop-color="#638783" offset="0%"></stop>
            <stop stop-color="#638783" stop-opacity="0.8654" offset="13.46%"></stop>
            <stop stop-color="#638783" stop-opacity="0" offset="100%"></stop>
        </linearGradient>
        <linearGradient x1="-12.7141481%" y1="34.2885447%" x2="101.34625%" y2="68.3889158%" id="linearGradient-10">
            <stop stop-color="#638783" offset="0%"></stop>
            <stop stop-color="#638783" stop-opacity="0.8654" offset="13.46%"></stop>
            <stop stop-color="#638783" stop-opacity="0" offset="100%"></stop>
        </linearGradient>
        <linearGradient x1="53.1303653%" y1="2.28056759%" x2="47.2200295%" y2="97.791656%" id="linearGradient-11">
            <stop stop-color="#638783" offset="0%"></stop>
            <stop stop-color="#638783" stop-opacity="0.8654" offset="13.46%"></stop>
            <stop stop-color="#638783" stop-opacity="0" offset="100%"></stop>
        </linearGradient>
        <linearGradient x1="47.1702718%" y1="97.8978587%" x2="52.6400668%" y2="1.53513622%" id="linearGradient-12">
            <stop stop-color="#638783" offset="0%"></stop>
            <stop stop-color="#638783" stop-opacity="0.8654" offset="13.46%"></stop>
            <stop stop-color="#638783" stop-opacity="0" offset="100%"></stop>
        </linearGradient>
        <linearGradient x1="61.1452928%" y1="78.820657%" x2="42.1801467%" y2="9.93489198%" id="linearGradient-13">
            <stop stop-color="#638783" offset="0%"></stop>
            <stop stop-color="#638783" stop-opacity="0.8654" offset="13.46%"></stop>
            <stop stop-color="#638783" stop-opacity="0" offset="100%"></stop>
        </linearGradient>
        <linearGradient x1="53.7707554%" y1="94.8879402%" x2="46.1129183%" y2="2.05297371%" id="linearGradient-14">
            <stop stop-color="#638783" offset="0%"></stop>
            <stop stop-color="#638783" stop-opacity="0.8654" offset="13.46%"></stop>
            <stop stop-color="#638783" stop-opacity="0" offset="100%"></stop>
        </linearGradient>
        <linearGradient x1="48.3865994%" y1="7.69197016%" x2="51.9811815%" y2="98.428258%" id="linearGradient-15">
            <stop stop-color="#638783" offset="0%"></stop>
            <stop stop-color="#638783" stop-opacity="0.8654" offset="13.46%"></stop>
            <stop stop-color="#638783" stop-opacity="0" offset="100%"></stop>
        </linearGradient>
        <linearGradient x1="54.3662565%" y1="5.34937782%" x2="45.8867594%" y2="99.8837686%" id="linearGradient-16">
            <stop stop-color="#638783" offset="0%"></stop>
            <stop stop-color="#638783" stop-opacity="0.2" offset="53.22%"></stop>
            <stop stop-color="#638783" offset="100%"></stop>
        </linearGradient>
        <linearGradient x1="45.6780976%" y1="5.32685996%" x2="54.1726319%" y2="99.8892232%" id="linearGradient-17">
            <stop stop-color="#638783" offset="0%"></stop>
            <stop stop-color="#638783" stop-opacity="0.2" offset="53.22%"></stop>
            <stop stop-color="#638783" offset="100%"></stop>
        </linearGradient>
        <linearGradient x1="80.3201369%" y1="7.08211144%" x2="22.9740958%" y2="88.2746823%" id="linearGradient-18">
            <stop stop-color="#FFFFFF" stop-opacity="0.95" offset="0%"></stop>
            <stop stop-color="#FFFFFF" stop-opacity="0.4" offset="99.9%"></stop>
        </linearGradient>
    </defs>
    <g id="investment-options-clean-energy" stroke="none" stroke-width="1" fill="none" fill-rule="evenodd">
        <g id="icon/104px/wind-turbine">
            <g id="wind-turbine" transform="translate(23.076923, 13.461538)">
                <path d="M153.847813,77.0307692 C153.847813,79.1480769 152.117043,80.8807692 149.999736,80.8807692 C147.884351,80.8807692 146.151659,79.1480769 146.151659,77.0307692 C146.151659,41.0384615 118.642043,11.3961538 83.6324281,8.125 L85.9401204,12.3596154 C88.8247358,17.5557692 90.3651204,23.3307692 90.3651204,29.2980769 L90.3651204,63.1596154 C92.8651204,65.6615385 95.0439665,69.0442308 95.8112742,73.0269231 L124.799736,91.0826923 C129.801659,94.1615385 133.842043,98.5884615 136.726659,103.594231 L142.497813,113.988462 C143.278582,115.261538 143.088197,116.288462 142.305505,117.646154 L142.305505,117.646154 L142.305505,117.646154 C131.532428,134.967308 114.79589,146.515385 96.3285819,151.326923 L97.6747358,165.376923 L105.753582,165.376923 C107.868967,165.376923 109.601659,167.109615 109.601659,169.226923 C109.601659,171.344231 107.87089,173.076923 105.753582,173.076923 L48.0420434,173.076923 C45.9266588,173.076923 44.1939665,171.344231 44.1939665,169.226923 C44.1939665,167.109615 45.9247358,165.376923 48.0420434,165.376923 L56.1208896,165.376923 L57.4670434,151.326923 C50.1574281,149.401923 42.8478127,146.323077 36.1131973,142.088462 C34.3824281,140.932692 33.805505,138.623077 34.9593511,136.7 C36.1131973,134.967308 38.4228127,134.390385 40.3458896,135.544231 C46.1170434,139.201923 52.080505,141.703846 58.4285819,143.436538 L62.6612742,101.476923 L43.4247358,113.409615 C38.4228127,116.488462 32.6516588,118.221154 26.880505,118.605769 L14.7612742,119.375 C12.9381973,119.323077 12.3997358,118.923077 11.4901204,117.45 C-10.8214181,81.2653846 0.336274219,33.725 36.5016588,11.5903846 C38.2324281,10.4346154 40.7343511,11.0134615 41.8881973,12.9384615 C43.0420434,14.6711538 42.4651204,17.1730769 40.5420434,18.3269231 C24.7670434,27.95 13.8035819,43.3480769 9.37858191,61.25 C5.53050499,77.0326923 7.45550499,93.3942308 14.5728127,107.636538 L16.880505,103.401923 C19.7651204,98.2057692 23.9978127,93.9711538 28.9997358,90.8903846 L57.9747358,73.0346154 C58.7439665,69.3769231 60.7401204,65.6634615 63.4343511,63.1615385 L63.4343511,29.1057692 C63.4343511,23.1384615 64.9728127,17.3653846 67.8593511,12.1673077 L73.630505,1.77307692 L73.630505,1.77307692 C74.4343511,0.551923077 75.2670434,0.0115384615 76.9016588,0 C119.41512,0 153.847813,34.4942308 153.847813,77.0307692 Z M71.1285819,58.5711538 C73.0516588,57.9942308 74.9766588,57.6942308 76.8997358,57.6942308 C78.8228127,57.6942308 80.7478127,57.9942308 82.6708896,58.5711538 L82.6708896,29.1057692 C82.6708896,24.4865385 81.5170434,20.0596154 79.2074281,16.0173077 L76.8997358,11.7826923 L74.5920434,16.0173077 C72.2843511,20.0596154 71.1285819,24.4865385 71.1285819,29.1057692 L71.1285819,58.5711538 L71.1285819,58.5711538 Z M64.3170434,91.7115385 C61.1343511,88.95 59.055505,85.4307692 58.2112742,81.9788462 L33.2324281,97.2423077 C29.3843511,99.5519231 26.1151204,103.017308 23.805505,107.057692 L21.4978127,111.292308 L26.3074281,111.1 C30.9247358,110.907692 35.3497358,109.559615 39.1958896,107.057692 L64.3170434,91.7115385 Z M131.917043,119.182692 L126.91512,118.990385 C120.951659,118.605769 115.372813,116.873077 110.37089,113.794231 L91.3266588,101.861538 L95.5593511,143.628846 C109.603582,139.778846 122.492043,131.501923 131.917043,119.182692 Z M89.480505,91.7115385 L114.411274,107.25 C118.259351,109.559615 122.682428,111.1 127.299736,111.292308 L132.301659,111.484615 L129.993967,107.25 C127.686274,103.207692 124.607428,99.9365385 120.759351,97.4346154 L95.6381973,81.7826923 C94.4728127,85.9096154 92.6381973,89.0211538 89.480505,91.7115385 Z M88.7516588,153.021154 C84.9035819,153.598077 80.7478127,154.021154 76.8997358,154.021154 C73.0516588,154.021154 68.8843511,153.636538 65.0362742,153.059615 L63.8497358,165.392308 L89.980505,165.388462 L88.7516588,153.021154 Z M87.8651204,145.359615 L83.055505,96.6634615 L81.5228127,95.8115385 C78.2401204,96.6038462 75.3747358,96.55 72.1535819,95.7807692 L70.7439665,96.6269231 L65.9343511,145.359615 C73.2439665,146.515385 80.7478127,146.515385 87.8651204,145.359615 Z M76.8997358,65.4826923 C70.5516588,65.4826923 65.3574281,70.6788462 65.3574281,77.0307692 C65.3574281,83.3826923 70.5516588,88.5788462 76.8997358,88.5788462 C83.2478127,88.5788462 88.4420434,83.3826923 88.4420434,77.0307692 C88.4420434,70.6788462 83.2478127,65.4826923 76.8997358,65.4826923 Z" id="Shape" fill="url(#linearGradient-1)" fill-rule="nonzero"></path>
                <circle id="Oval" fill="url(#linearGradient-2)" fill-rule="nonzero" cx="76.8997358" cy="77.0307692" r="11.5480769"></circle>
                <path d="M142.305505,117.644231 C140.657428,118.290385 131.917043,119.184615 131.917043,119.184615 C128.888197,123.142308 125.47089,126.634615 121.805505,129.744231 L122.678582,138.815385 C130.317043,133.215385 137.030505,126.126923 142.305505,117.644231 Z" id="Path" fill="url(#linearGradient-3)" fill-rule="nonzero" opacity="0.3"></path>
                <g id="Group" opacity="0.3" transform="translate(75.963197, 0.000000)" fill="url(#linearGradient-4)" fill-rule="nonzero">
                    <path d="M0.938461538,0 C0.938461538,0 3.52692308,2.79615385 4.34807692,3.78846154 C5.20961538,4.82884615 7.66923077,8.125 7.66923077,8.125 C13.0884615,8.63076923 18.3269231,9.77307692 23.3115385,11.4692308 L31.5538462,6.35384615 C22.1711538,2.27307692 11.8230769,0 0.938461538,0 Z" id="Path"></path>
                </g>
                <g id="Group" opacity="0.3" transform="translate(81.732428, 41.346154)" fill="url(#linearGradient-5)" fill-rule="nonzero">
                    <path d="M0.938461538,17.2230769 C3.85576923,18.1346154 6.46730769,19.725 8.60769231,21.7980769 L8.63269231,21.8134615 L8.63269231,0.259615385 L0.938461538,0.259615385 L0.938461538,17.2230769 Z" id="Path"></path>
                </g>
                <g id="Group" opacity="0.3" transform="translate(62.501659, 41.346154)" fill="url(#linearGradient-6)" fill-rule="nonzero">
                    <path d="M8.62692308,17.2230769 C5.70961538,18.1346154 3.09807692,19.725 0.957692308,21.7980769 L0.932692308,21.8134615 L0.932692308,0.259615385 L8.62692308,0.259615385 L8.62692308,17.2230769 Z" id="Path"></path>
                </g>
                <g id="Group" opacity="0.25" transform="translate(39.424736, 72.115385)" fill="url(#linearGradient-7)" fill-rule="nonzero">
                    <path d="M18.7865385,9.86346154 C18.025,6.90384615 17.9192308,3.85961538 18.5538462,0.946153846 L18.5538462,0.917307692 L0.203846154,12.225 L4.24615385,18.7480769 L18.7865385,9.86346154 Z" id="Path" opacity="0.3"></path>
                </g>
                <path d="M72.0612742,95.7346154 C69.1747358,94.9903846 66.5497358,93.6076923 64.3516588,91.7288462 L64.3170434,91.7115385 L49.8439665,100.551923 L53.8228127,106.959615 L62.6170434,101.503846 L72.1535819,95.7826923 L72.0612742,95.7346154 Z" id="Path" fill="url(#linearGradient-8)" fill-rule="nonzero" opacity="0.3"></path>
                <g id="Group" opacity="0.3" transform="translate(80.770890, 91.346154)" fill="url(#linearGradient-9)" fill-rule="nonzero">
                    <path d="M8.70961538,0.365384615 C6.39423077,2.35961538 3.64423077,3.74423077 0.751923077,4.46538462 L2.28461538,5.31730769 L18.6846154,15.6076923 L23.2653846,9.44807692 L8.70961538,0.365384615 Z" id="Path"></path>
                </g>
                <path d="M95.8131973,73.0269231 C96.4247358,75.9442308 96.3516588,78.9769231 95.6401204,81.7807692 L110.097813,90.7884615 L114.07089,84.3980769 L95.8131973,73.0269231 Z" id="Path" fill="url(#linearGradient-10)" fill-rule="nonzero" opacity="0.3"></path>
                <polygon id="Path" fill="url(#linearGradient-11)" fill-rule="nonzero" opacity="0.3" points="70.7439665 96.6288462 62.6651204 101.475 60.9401204 118.576923 68.5131973 119.261538"></polygon>
                <path d="M58.4324281,143.434615 C58.4324281,143.434615 61.1324281,144.205769 62.0747358,144.448077 C63.0093511,144.688462 65.9362742,145.359615 65.9362742,145.359615 L67.7574281,126.915385 L60.1689665,126.230769 L58.4324281,143.434615 Z" id="Path" fill="url(#linearGradient-12)" fill-rule="nonzero" opacity="0.3"></path>
                <g id="Group" opacity="0.3" transform="translate(1.924736, 91.346154)" fill="url(#linearGradient-13)" fill-rule="nonzero">
                    <path d="M9.56923077,26.1057692 C9.56923077,26.1057692 10.0423077,22.4384615 10.6326923,20.7230769 C11.2961538,18.7942308 12.6461538,16.2903846 12.6461538,16.2903846 C10.0692308,11.1346154 8.18461538,5.69807692 6.99615385,0.113461538 L0.361538462,4.23269231 C2.23653846,11.7673077 5.27884615,19.1461538 9.56923077,26.1057692 Z" id="Path"></path>
                </g>
                <polygon id="Path" fill="url(#linearGradient-14)" fill-rule="nonzero" opacity="0.3" points="85.9766588 126.232692 87.8651204 145.359615 95.5593511 143.628846 93.7266588 125.538462"></polygon>
                <polygon id="Path" fill="url(#linearGradient-15)" fill-rule="nonzero" opacity="0.3" points="92.9516588 117.884615 91.3285819 101.861538 83.055505 96.6634615 85.2208896 118.576923"></polygon>
                <path d="M56.1247358,165.376923 L57.4708896,151.326923 C57.4708896,151.326923 60.1978127,152.032692 61.1131973,152.242308 C62.0881973,152.465385 65.0362742,153.057692 65.0362742,153.057692 L63.8497358,165.390385 L56.1247358,165.376923 Z" id="Path" fill="url(#linearGradient-16)" fill-rule="nonzero" opacity="0.3"></path>
                <path d="M97.6766588,165.376923 L96.3131973,151.326923 C96.3131973,151.326923 93.5862742,152.032692 92.6708896,152.242308 C91.6958896,152.465385 88.7535819,153.019231 88.7535819,153.019231 L89.9824281,165.388462 L97.6766588,165.376923 Z" id="Path" fill="url(#linearGradient-17)" fill-rule="nonzero" opacity="0.3"></path>
                <circle id="Oval" fill="url(#linearGradient-18)" fill-rule="nonzero" cx="76.8997358" cy="77.0307692" r="3.93461538"></circle>
            </g>
        </g>
    </g>
</svg>