<?xml version="1.0" encoding="UTF-8"?>
<svg width="96px" height="96px" viewBox="0 0 96 96" version="1.1" xmlns="http://www.w3.org/2000/svg" xmlns:xlink="http://www.w3.org/1999/xlink">
    <!-- Generator: Sketch 64 (93537) - https://sketch.com -->
    <title>Stocks and Share ISA</title>
    <desc>Created with Sketch.</desc>
    <defs>
        <linearGradient x1="96.2649619%" y1="46.4444444%" x2="22.7682074%" y2="82.0040626%" id="linearGradient-1">
            <stop stop-color="#46CCA1" offset="0%"></stop>
            <stop stop-color="#02C0BF" offset="100%"></stop>
        </linearGradient>
        <linearGradient x1="96.2649619%" y1="44.4444444%" x2="22.7682074%" y2="100.006348%" id="linearGradient-2">
            <stop stop-color="#46CCA1" offset="0%"></stop>
            <stop stop-color="#02C0BF" offset="100%"></stop>
        </linearGradient>
        <linearGradient x1="96.2649619%" y1="30.46875%" x2="22.7682074%" y2="225.803567%" id="linearGradient-3">
            <stop stop-color="#46CCA1" offset="0%"></stop>
            <stop stop-color="#02C0BF" offset="100%"></stop>
        </linearGradient>
        <linearGradient x1="61.5662405%" y1="0%" x2="43.1920519%" y2="500.057131%" id="linearGradient-4">
            <stop stop-color="#46CCA1" offset="0%"></stop>
            <stop stop-color="#02C0BF" offset="100%"></stop>
        </linearGradient>
    </defs>
    <g id="Stocks-and-Share-ISA" stroke="none" stroke-width="1" fill="none" fill-rule="evenodd" stroke-linecap="round" stroke-linejoin="round">
        <g id="Atom/Icon/Product/60x60/Stocks-and-Shares-ISA" transform="translate(9.000000, 9.000000)" stroke-width="4">
            <g id="streamline-icon-accounting-coins-stack@34x34">
                <path d="M25.68,0.666666667 C39.4866667,0.666666667 50.68,3.65 50.68,7.33333333 C50.68,11.0166667 39.4866667,14 25.68,14 C11.8733333,14 0.68,11.0166667 0.68,7.33333333 C0.68,3.65 11.8733333,0.666666667 25.68,0.666666667 Z" id="Path" stroke="url(#linearGradient-1)"></path>
                <path d="M50.6666667,7.33333333 L50.6666667,17.3333333 C50.6666667,21.0166667 39.4766667,24 25.6666667,24 C11.8566667,24 0.666666667,21.0166667 0.666666667,17.3333333 L0.666666667,7.33333333" id="Path" stroke="url(#linearGradient-2)"></path>
                <path d="M50.6666667,17.3333333 L50.6666667,27.3333333 C50.6666667,31.0166667 39.4766667,34 25.6666667,34 C11.8566667,34 0.666666667,31.0166667 0.666666667,27.3333333 L0.666666667,17.3333333" id="Path" stroke="url(#linearGradient-2)"></path>
                <path d="M52.3466667,44 C66.1533333,44 77.3466667,46.9833333 77.3466667,50.6666667 C77.3466667,54.35 66.1533333,57.3333333 52.3466667,57.3333333 C38.54,57.3333333 27.3466667,54.35 27.3466667,50.6666667 C27.3466667,46.9833333 38.54,44 52.3466667,44 Z" id="Path" stroke="url(#linearGradient-1)"></path>
                <path d="M77.3333333,50.6666667 L77.3333333,60.6666667 C77.3333333,64.35 66.1433333,67.3333333 52.3333333,67.3333333 C38.5233333,67.3333333 27.3333333,64.35 27.3333333,60.6666667 L27.3333333,50.6666667" id="Path" stroke="url(#linearGradient-2)"></path>
                <path d="M77.3333333,60.6666667 L77.3333333,70.6666667 C77.3333333,74.35 66.1433333,77.3333333 52.3333333,77.3333333 C38.5233333,77.3333333 27.3333333,74.35 27.3333333,70.6666667 L27.3333333,60.6666667" id="Path" stroke="url(#linearGradient-2)"></path>
                <path d="M50.6666667,27.3333333 L50.6666667,37.3333333 C50.6666667,41.0166667 39.4766667,44 25.6666667,44 C11.8566667,44 0.666666667,41.0166667 0.666666667,37.3333333 L0.666666667,27.3333333" id="Path" stroke="url(#linearGradient-2)"></path>
                <path d="M0.666666667,37.3333333 L0.666666667,47.3333333 C0.666666667,51.0166667 11.86,54 25.6666667,54 L27.3333333,54" id="Path" stroke="url(#linearGradient-3)"></path>
                <path d="M0.666666667,47.3333333 L0.666666667,57.3333333 C0.666666667,61.0166667 11.86,64 25.6666667,64 L27.3333333,64" id="Path" stroke="url(#linearGradient-3)"></path>
                <line x1="50.68" y1="37.3333333" x2="50.68" y2="44" id="Path" stroke="url(#linearGradient-4)"></line>
            </g>
        </g>
    </g>
</svg>